<?xml version="1.0" standalone="no"?>
<!DOCTYPE svg PUBLIC "-//W3C//DTD SVG 20010904//EN"
 "http://www.w3.org/TR/2001/REC-SVG-20010904/DTD/svg10.dtd">
<svg version="1.0" xmlns="http://www.w3.org/2000/svg"
 width="360.000000pt" height="360.000000pt" viewBox="0 0 360.000000 360.000000"
 preserveAspectRatio="xMidYMid meet">

<g transform="translate(0.000000,360.000000) scale(0.100000,-0.100000)"
fill="white" stroke="none">
<path d="M410 2948 c-49 -14 -97 -53 -120 -98 -20 -38 -20 -60 -20 -915 0
-855 0 -877 20 -915 35 -69 112 -110 206 -110 l42 0 4 -73 c3 -62 8 -80 31
-111 16 -20 47 -46 70 -59 l42 -22 1225 -3 c873 -2 1238 0 1270 8 58 15 105
51 130 100 20 38 20 60 20 915 0 855 0 877 -20 915 -35 69 -112 110 -207 110
l-43 0 0 63 c0 100 -53 170 -149 197 -49 14 -2453 12 -2501 -2z m2499 -112
c33 -18 51 -54 51 -106 l0 -40 -1117 0 c-718 0 -1131 -4 -1154 -10 -52 -14
-100 -49 -123 -90 -21 -34 -21 -51 -26 -800 l-5 -765 -39 -3 c-21 -2 -52 2
-68 9 -60 25 -58 -11 -58 906 1 899 -1 870 51 899 37 21 2448 20 2488 0z m270
-270 c15 -8 32 -26 39 -41 15 -33 18 -1705 3 -1705 -6 0 -150 177 -322 393
-171 215 -318 396 -326 400 -33 20 -63 -9 -237 -228 -130 -164 -182 -223 -190
-215 -6 6 -142 176 -301 378 -296 374 -314 392 -352 361 -8 -7 -202 -240 -431
-517 l-417 -505 -3 804 c-2 588 1 811 9 832 25 59 -45 56 1282 57 1035 0 1222
-2 1246 -14z m-1250 -1299 c220 -280 401 -510 401 -513 0 -2 -69 -4 -152 -4
l-153 0 -310 416 c-170 229 -314 424 -319 434 -6 14 6 36 60 99 37 45 68 80
69 79 1 -2 183 -232 404 -511z m-328 -127 c153 -206 279 -378 279 -382 0 -11
-1162 -10 -1179 1 -11 7 35 68 199 268 118 142 257 311 309 375 53 64 100 116
104 115 5 -2 134 -171 288 -377z m1235 -21 c153 -194 281 -356 282 -360 2 -5
-142 -9 -320 -9 l-324 0 -123 156 c-71 90 -120 161 -117 170 8 21 306 394 315
394 4 0 133 -158 287 -351z"/>
<path d="M2150 2377 c-90 -25 -163 -88 -202 -172 -35 -76 -33 -191 5 -267 34
-69 101 -131 164 -152 72 -25 187 -21 248 8 65 30 138 111 160 177 23 69 17
178 -13 240 -64 131 -225 205 -362 166z m166 -116 c135 -61 159 -257 42 -344
-71 -52 -137 -59 -215 -23 -69 33 -105 86 -111 166 -11 157 142 266 284 201z"/>
</g>
</svg>
